<?xml version="1.0" encoding="UTF-8"?><svg xmlns="http://www.w3.org/2000/svg" viewBox="0 0 460.87 308"><defs><style>.d{fill:#f9bf64;}.e{fill:#ea7628;}.f{fill:#ffc78f;}.g{fill:#ff8b2c;}.h{fill:#8eb2ed;}.i{fill:#db6300;}.j{fill:#ce3a00;}</style></defs><g id="a"/><g id="b"><g id="c"><g><ellipse class="i" cx="232.61" cy="58.5" rx="66.5" ry="58.5"/><circle class="i" cx="328.11" cy="68" r="46"/><ellipse class="i" cx="232.61" cy="248.5" rx="66.5" ry="58.5"/><circle class="i" cx="328.11" cy="262" r="46"/><path class="d" d="M455.54,174.96c-14.48,16.99-41.64,45.57-76.25,66.77-25.54,15.64-55.13,27.27-86.68,27.27-21.57,0-42.23-2.43-61.3-6.89-39.73-9.27-72.57-27.28-92.47-50.28-13.23-15.28-20.73-32.76-20.73-51.33,0-.96,.02-1.92,.06-2.88,.17-3.97,.68-7.9,1.51-11.75,3.44-15.84,12.36-30.59,25.56-43.5,20.18-19.74,50.34-35.15,86.07-43.48,19.07-4.46,39.73-6.89,61.3-6.89,31.55,0,61.14,11.63,86.68,27.27,34.61,21.2,61.77,49.78,76.25,66.77,7.1,8.33,7.1,20.59,0,28.92Z"/><path class="h" d="M169.22,136.29s-12.03,8.18-29.85,14.97c-6.41,2.45-13.57,4.72-21.2,6.36-10.86,2.35-22.66,3.42-34.53,1.92-3.5-.44-7-1.1-10.49-2.02-4.45-1.17-8.72-2.72-12.79-4.56C21.63,135.5,0,91.71,0,91.71c0,0,33.93-23.06,72.17-23.91,7.87-.18,15.92,.58,23.9,2.68,20.45,5.39,37.01,18.66,49.17,31.89,15.62,17,23.98,33.92,23.98,33.92Z"/><path class="h" d="M173.22,167.71s-12.09,24.48-34.38,44.12c-10.66,9.41-23.65,17.7-38.77,21.69-11.7,3.08-23.56,3.29-34.77,1.86-33.57-4.25-61.3-23.09-61.3-23.09,0,0,20.14-40.79,56.36-59.33,5.26-2.69,10.86-4.92,16.79-6.48,2.31-.61,4.63-1.11,6.95-1.5,12.16-2.06,24.33-1.31,35.58,.89,6.98,1.35,13.62,3.27,19.69,5.39,19.99,7.03,33.85,16.45,33.85,16.45Z"/><path class="g" d="M270.11,160.5c0,39.03-14.66,74.64-38.8,101.61-39.73-9.27-72.57-27.28-92.47-50.28-10.66,9.41-23.65,17.7-38.77,21.69-11.7,3.08-23.56,3.29-34.77,1.86-33.57-4.25-61.3-23.09-61.3-23.09,0,0,20.14-40.79,56.36-59.33C21.63,135.5,0,91.71,0,91.71c0,0,33.93-23.06,72.17-23.91,7.87-.18,15.92,.58,23.9,2.68,20.45,5.39,37.01,18.66,49.17,31.89,20.18-19.74,50.34-35.15,86.07-43.48,24.14,26.97,38.8,62.58,38.8,101.61Z"/><path class="e" d="M84.11,143.5c0,.49,0,.99-.01,1.48-.02,4.93-.18,9.78-.46,14.56-1.79,29.81-8.5,56.36-18.34,75.84-33.57-4.25-61.3-23.09-61.3-23.09,0,0,20.14-40.79,56.36-59.33C21.63,135.5,0,91.71,0,91.71c0,0,33.93-23.06,72.17-23.91,7.5,21.04,11.94,47.26,11.94,75.7Z"/><path class="f" d="M455.54,174.96c-14.48,16.99-41.64,45.57-76.25,66.77-9.48-21.97-15.18-50.31-15.18-81.23s5.7-59.26,15.18-81.23c34.61,21.2,61.77,49.78,76.25,66.77,7.1,8.33,7.1,20.59,0,28.92Z"/><circle class="j" cx="412.11" cy="134" r="12"/></g></g></g></svg>